<svg xmlns="http://www.w3.org/2000/svg" width="161.25" height="161.25" viewBox="0 0 161.25 161.25">
  <path id="Path_8" data-name="Path 8" d="M161.25,460.194H0v161.25H161.25ZM77.461,511.735l-6.431.156v6.036H64.693v-5.912c2.275,0,4.36,0,6.437-.01q-.064-3.364-.128-6.728h-6.19V473.3H83.658c.149,2.138.283,4.073.445,6.413H96.538v6.355H83.788v6.423H96.5v6.254l-6.263.343v6.305h6.247v12.786h-6.24q.078,3.215.156,6.431h19.322v6.581l-.115-.114,6.549.129V524.94H148.1v12.591h-6.24q-.006,6.5-.012,13.009H148.1v6.123h-6.142v-6.238h-6.694v6.308h-6.077c-.136-2.139-.26-4.083-.4-6.3H122.5v6.248H103.258v-6.248H96.7v19.153H71v-6.251l-6.568.008v19.474h6.557V576.56h6.123V582.7H70.878v12.641h6.406c.095-2.147.176-3.989.26-5.881h6.241c0,4.4,0,8.543,0,12.686H90V582.869l-5.884-.264v-5.991H96.531v31.681H83.9v-6.262H77.207v6.311H71.148l-.448-6.307H58v6.257H51.879v-6.142h6.238v-19.12H51.409v12.422H45.337l-.4-5.973H38.627c0,4.406,0,8.537,0,12.668h6.257v6.122H38.741v-6.237l-12.995,0v6.257H19.624v-6.142h6.237V582.657h19.4V569.779h6.377l-.114.115.129-6.55h-12.8c-.132-2.344-.242-4.278-.365-6.459h-6.3v6.459H25.729v6.671H38.492v6.339H19.5c-.134,2.349-.244,4.288-.354,6.218H13.111V570.016l6.291-.383v-6.29H13.175V550.549H25.853q0-3.274,0-6.55H19.239v-6.324H13.183V531.19h6.228v-6.24h6.1v6.125H19.3q-.09,3.353-.17,6.7h6.618v6.339h6.681V524.9h6.086l.408,6.305h6.27v-6.256h6.123v6.142H45.074v6.337l-6.052.351v12.51H57.85c.143-2.12.275-4.053.412-6.086l6.3-.388V531.1H58.307v-6.123H64.45v6.238h6.333c.14-2.476.249-4.4.352-6.217h6.2v12.652H83.69c.136-2.466.242-4.4.355-6.451h6.319q.081-3.348.152-6.687h-6.6v-6.324H77.461v-6.451m70.612,6.183H103.419V473.261h44.655Zm-90.315,0H13.106V473.26H57.759Zm90.317,90.317H103.417V563.577h44.658Z" transform="translate(0 -460.194)" fill="#fff"/>
  <path id="Path_9" data-name="Path 9" d="M118.707,742.058V729.372h-6.241c-.084,1.893-.165,3.734-.26,5.881H105.8V722.613l.115.114H99.358V703.253l.118.111H86.462l.118-.11-.129,6.55h6.257v6.123H86.566v-6.238H80.189v12.878h-19.4v19.5l-.115-.115,12.994,0-.115.115V729.39h6.313l.4,5.973h6.072V722.942H93.04v19.12l-.115-.115h12.7l.448,6.307h6.059v-6.311h6.691Z" transform="translate(-34.923 -600.104)"/>
  <path id="Path_10" data-name="Path 10" d="M288.351,490.986H243.7v44.657h44.655Zm-6.344,38.243H250.252V497.472h31.755Z" transform="translate(-140.277 -477.919)"/>
  <path id="Path_11" data-name="Path 11" d="M75.535,490.983H30.883V535.64H75.535ZM37.3,497.543H69.051V529.3H37.3Z" transform="translate(-17.777 -477.917)"/>
  <path id="Path_12" data-name="Path 12" d="M288.349,703.8H243.691v44.657h44.658ZM250.1,710.37h31.755v31.739H250.1Z" transform="translate(-140.274 -600.422)"/>
  <path id="Path_13" data-name="Path 13" d="M99.471,618.87v12.722l-6.3.388c-.138,2.032-.269,3.965-.412,6.085H73.929v-12.51l6.052-.351v-6.336l.115.114H73.826c-.144-2.223-.269-4.165-.408-6.305H67.332v19.211H60.65l.114-.115q0,3.274,0,6.549l-.118-.11h6.563v6.563l-.111-.118h6.3c.123,2.181.233,4.115.365,6.459h12.8l-.118.11v-6.24H99.461v6.24l-.118-.111,6.567-.008-.11.118v-12.9h6.561q-.055-3.285-.11-6.569l.112.112h-6.234v-6.563h6.234l-.118.111V612.767h-6.2c-.1,1.814-.212,3.741-.352,6.217H99.357Z" transform="translate(-34.907 -547.965)"/>
  <path id="Path_14" data-name="Path 14" d="M171.7,510.267v-6.423h12.75v-6.355H172.015c-.162-2.34-.3-4.275-.445-6.413H152.725v31.977h6.19l-.111.118V510.156h13.014Zm-6.548-6.7H159.09v-5.991h6.062Z" transform="translate(-87.912 -477.97)"/>
  <path id="Path_15" data-name="Path 15" d="M232.133,618.416v-6.581c-6.611,0-12.966,0-19.327,0l.129-.112q-.082,3.348-.163,6.7l-.118-.11h6.563v19.465l-.11-.118h6.56l-.11.118v-6.563h19.465l-.112.113v-6.353l-6.451-.355v-6.307l.11.118-6.549-.129q0,3.125,0,6.257H225.9v-6.142Z" transform="translate(-122.409 -547.42)"/>
  <path id="Path_16" data-name="Path 16" d="M167.161,685.735v6.251h25.7V672.833l.11.118H186.4l.112-.112v6.453h-6.569v6.562h-12.9Z" transform="translate(-96.158 -582.594)"/>
  <path id="Path_17" data-name="Path 17" d="M197.542,759.943V766.2h12.633V734.523H197.756v5.991l5.884.264v19.279h-6.212l.114-.115" transform="translate(-113.644 -618.104)"/>
  <path id="Path_18" data-name="Path 18" d="M299.264,625.352H305.5V612.761H273.568v6.265l-.11-.118h25.916v6.563Z" transform="translate(-157.408 -548.015)"/>
  <path id="Path_19" data-name="Path 19" d="M37.186,703.254v6.29l-6.291.383v12.556H36.93c.11-1.931.22-3.87.354-6.219H56.276v-6.338H43.513v-6.672l.118.111H37.068Z" transform="translate(-17.784 -600.104)"/>
  <path id="Path_20" data-name="Path 20" d="M308,655.44q.006-6.5.012-13.009l.11.118h-12.8c-.132,2.343-.241,4.277-.363,6.451h-6.3l.112-.112v6.563l-.11-.118h6.282c.141,2.216.265,4.161.4,6.3h6.078v-6.308h6.694Z" transform="translate(-166.159 -565.094)"/>
  <path id="Path_21" data-name="Path 21" d="M195.263,627.354h-6.319c-.113,2.053-.219,3.984-.356,6.451h-6.352l.118-.111v6.564l-.113-.113h6.445v6.561l6.569-.11-.112.112V627.243Z" transform="translate(-104.9 -556.351)"/>
  <path id="Path_22" data-name="Path 22" d="M203.889,549.05v-6.305l6.263-.343v-6.254H197.438l.118-.111v12.9h6.451Z" transform="translate(-113.65 -503.851)"/>
  <path id="Path_23" data-name="Path 23" d="M43.724,672.957H31.045v12.793h6.228l-.118.111V679.3h6.563l-.112.112v-6.563Z" transform="translate(-17.87 -582.602)"/>
  <path id="Path_24" data-name="Path 24" d="M243.166,672.833v6.248H262.41v-6.248l.111.118H243.055Z" transform="translate(-139.908 -582.594)"/>
  <path id="Path_25" data-name="Path 25" d="M212.647,579.336h6.24V566.55h-6.247l.118-.11v13.014Z" transform="translate(-122.4 -521.352)"/>
  <path id="Path_26" data-name="Path 26" d="M334.352,672.814v6.238h6.142v-6.123h-6.257l.114-.115" transform="translate(-192.395 -582.583)"/>
  <path id="Path_27" data-name="Path 27" d="M45.47,618.912h6.217v-6.125h-6.1v6.24Z" transform="translate(-26.174 -548.029)"/>
  <path id="Path_28" data-name="Path 28" d="M37.293,627.334H31.065v6.485c1.939,0,4,0,6.061,0l-.129.112q.09-3.353.181-6.707l.115.114" transform="translate(-17.882 -556.337)"/>
  <path id="Path_29" data-name="Path 29" d="M51.679,649.2v-6.34c-2.267,0-4.442,0-6.623,0l.123-.109c-.005,1.973-.005,3.943-.005,6.329h6.619l-.114.115" transform="translate(-25.935 -565.283)"/>
  <path id="Path_30" data-name="Path 30" d="M60.628,694.493h6.459v-6.459l.111.118H60.634l.112-.112V694.6Z" transform="translate(-34.899 -591.344)"/>
  <path id="Path_31" data-name="Path 31" d="M106.212,618.931h6.238v-6.142h-6.123q0,3.135,0,6.257l-.115-.115" transform="translate(-61.138 -548.031)"/>
  <path id="Path_32" data-name="Path 32" d="M143.537,619.081v-6.238h-6.142v6.123h6.257l-.114.115" transform="translate(-79.088 -548.062)"/>
  <path id="Path_33" data-name="Path 33" d="M197.57,596.836v6.324c2.256,0,4.43,0,6.608,0l-.123.108q-.071-3.222-.151-6.435l.111.118h-6.563Z" transform="translate(-113.658 -538.843)"/>
  <path id="Path_34" data-name="Path 34" d="M158.889,582.129h-6.446v5.912h6.338c0-1.908,0-3.972,0-6.041l.112.128" transform="translate(-87.75 -530.309)"/>
  <path id="Path_35" data-name="Path 35" d="M182.369,581.645V588.1h6.451l-.118.111v-6.451h-6.451Z" transform="translate(-104.908 -530.103)"/>
  <path id="Path_36" data-name="Path 36" d="M167.016,740.54h6.238V734.4h-6.123q0,3.135,0,6.257l-.115-.114" transform="translate(-96.138 -618.032)"/>
  <path id="Path_37" data-name="Path 37" d="M128.485,794.546h-6.238v6.142h6.123q0-3.135,0-6.257l.115.114" transform="translate(-70.368 -652.589)"/>
  <path id="Path_38" data-name="Path 38" d="M91.135,794.423v6.238h6.142v-6.123H91.021l.114-.115" transform="translate(-52.394 -652.584)"/>
  <path id="Path_39" data-name="Path 39" d="M167.161,566.425q.064,3.364.132,6.734s-.113-.128-.108-.124q3.222-.071,6.435-.151l-.118.11v-6.451H167.05Z" transform="translate(-96.158 -521.343)"/>
  <path id="Path_40" data-name="Path 40" d="M52.479,794.546H46.241v6.142h6.123q0-3.135,0-6.257l.115.114" transform="translate(-26.617 -652.589)"/>
  <rect id="Rectangle_142" data-name="Rectangle 142" width="13.014" height="6.24" transform="translate(70.883 142.18)" fill="#fff"/>
  <path id="Path_41" data-name="Path 41" d="M121.536,718.418v6.237h6.143v-6.122h-6.257l.114-.115" transform="translate(-69.893 -608.833)" fill="#fff"/>
  <path id="Path_42" data-name="Path 42" d="M290.9,506.271H259.144v31.757H290.9Zm-6.488,25.338H265.563V512.69h18.848Z" transform="translate(-149.169 -486.717)" fill="#fff"/>
  <path id="Path_43" data-name="Path 43" d="M46,538.2H77.751V506.44H46Zm25.39-6.507H52.573V512.8H71.386Z" transform="translate(-26.477 -486.814)" fill="#fff"/>
  <path id="Path_44" data-name="Path 44" d="M258.792,751.013h31.755V719.274H258.792Zm25.445-6.453H265.331V725.726h18.906Z" transform="translate(-148.967 -609.326)" fill="#fff"/>
  <path id="Path_45" data-name="Path 45" d="M167.05,685.861h12.9V679.3l.118.111H173.5v-6.563l.111.118H167.05Z" transform="translate(-96.158 -582.602)" fill="#fff"/>
  <path id="Path_46" data-name="Path 46" d="M188.7,664.208v-6.562h-6.445l.111,6.569-.111-.118h6.563Z" transform="translate(-104.908 -573.852)" fill="#fff"/>
  <path id="Path_47" data-name="Path 47" d="M60.642,679.41h6.563v-6.563H60.642v6.563" transform="translate(-34.907 -582.602)" fill="#fff"/>
  <rect id="Rectangle_143" data-name="Rectangle 143" width="6.234" height="6.563" transform="translate(71.221 77.343)" fill="#fff"/>
  <path id="Path_48" data-name="Path 48" d="M167.05,549.052H173.5V555.5h6.451v6.451h6.563V548.94h-6.451v-12.9H167.05Z" transform="translate(-96.158 -503.852)" fill="#fff"/>
  <rect id="Rectangle_144" data-name="Rectangle 144" width="6.062" height="5.991" transform="translate(71.178 19.606)" fill="#fff"/>
  <path id="Path_49" data-name="Path 49" d="M279.908,640.258h6.3c.122-2.174.231-4.108.363-6.451h12.8v-6.563H273.457v6.307l6.451.355Z" transform="translate(-157.408 -556.351)" fill="#fff"/>
  <path id="Path_50" data-name="Path 50" d="M212.653,627.244V646.71h6.563V627.244Z" transform="translate(-122.408 -556.351)" fill="#fff"/>
  <path id="Path_51" data-name="Path 51" d="M243.055,664.209h19.466v-6.563H243.055Z" transform="translate(-139.908 -573.852)" fill="#fff"/>
  <path id="Path_52" data-name="Path 52" d="M250.094,627.334h-6.238v6.142h6.123q0-3.135,0-6.257l.115.114" transform="translate(-140.369 -556.337)" fill="#fff"/>
  <path id="Path_53" data-name="Path 53" d="M204.007,672.847l-6.569.111.118-.111v6.563l-.118-.11h6.569Z" transform="translate(-113.65 -582.602)" fill="#fff"/>
  <rect id="Rectangle_145" data-name="Rectangle 145" width="6.563" height="6.563" transform="translate(19.284 96.696)" fill="#fff"/>
  <rect id="Rectangle_146" data-name="Rectangle 146" width="18.848" height="18.919" transform="translate(116.393 25.973)"/>
  <rect id="Rectangle_147" data-name="Rectangle 147" width="18.813" height="18.884" transform="translate(26.097 25.99)"/>
  <rect id="Rectangle_148" data-name="Rectangle 148" width="18.906" height="18.834" transform="translate(116.365 116.4)"/>
  <path id="Path_54" data-name="Path 54" d="M188.814,679.41v-6.563h-6.563v6.563Z" transform="translate(-104.908 -582.602)"/>
  <path id="Path_55" data-name="Path 55" d="M161.25,460.194H0v161.25H161.25ZM77.461,511.735l-6.431.156v6.036H64.693v-5.912c2.275,0,4.36,0,6.437-.01q-.064-3.364-.128-6.728h-6.19V473.3H83.658c.149,2.138.283,4.073.445,6.413H96.538v6.355H83.788v6.423H96.5v6.254l-6.263.343v6.305h6.247v12.786h-6.24q.078,3.215.156,6.431h19.322v6.581l-.115-.114,6.549.129V524.94H148.1v12.591h-6.24q-.006,6.5-.012,13.009H148.1v6.123h-6.142v-6.238h-6.694v6.308h-6.077c-.136-2.139-.26-4.083-.4-6.3H122.5v6.248H103.258v-6.248H96.7v19.153H71v-6.251l-6.568.008v19.474h6.557V576.56h6.123V582.7H70.878v12.641h6.406c.095-2.147.176-3.989.26-5.881h6.241c0,4.4,0,8.543,0,12.686H90V582.869l-5.884-.264v-5.991H96.531v31.681H83.9v-6.262H77.207v6.311H71.148l-.448-6.307H58v6.257H51.879v-6.142h6.238v-19.12H51.409v12.422H45.337l-.4-5.973H38.627c0,4.406,0,8.537,0,12.668h6.257v6.122H38.741v-6.237l-12.995,0v6.257H19.624v-6.142h6.237V582.657h19.4V569.779h6.377l-.114.115.129-6.55h-12.8c-.132-2.344-.242-4.278-.365-6.459h-6.3v6.459H25.729v6.671H38.492v6.339H19.5c-.134,2.349-.244,4.288-.354,6.218H13.111V570.016l6.291-.383v-6.29H13.175V550.549H25.853q0-3.274,0-6.55H19.239v-6.324H13.183V531.19h6.228v-6.24h6.1v6.125H19.3q-.09,3.353-.17,6.7h6.618v6.339h6.681V524.9h6.086l.408,6.305h6.27v-6.256h6.123v6.142H45.074v6.337l-6.052.351v12.51H57.85c.143-2.12.275-4.053.412-6.086l6.3-.388V531.1H58.307v-6.123H64.45v6.238h6.333c.14-2.476.249-4.4.352-6.217h6.2v12.652H83.69c.136-2.466.242-4.4.355-6.451h6.319q.081-3.348.152-6.687h-6.6v-6.324H77.461v-6.451m70.612,6.183H103.419V473.261h44.655Zm-90.315,0H13.106V473.26H57.759Zm90.317,90.317H103.417V563.577h44.658Z" transform="translate(0 -460.194)" fill="#fff"/>
</svg>
