<svg xmlns="http://www.w3.org/2000/svg" xmlns:xlink="http://www.w3.org/1999/xlink" width="49" height="49" viewBox="0 0 49 49">
  <defs>
    <filter id="Rectangle_128" x="0" y="0" width="49" height="49" filterUnits="userSpaceOnUse">
      <feOffset input="SourceAlpha"/>
      <feGaussianBlur stdDeviation="1.5" result="blur"/>
      <feFlood flood-opacity="0.161"/>
      <feComposite operator="in" in2="blur"/>
      <feComposite in="SourceGraphic"/>
    </filter>
  </defs>
  <g id="Component_2_1" data-name="Component 2 – 1" transform="translate(4.5 4.5)">
    <g transform="matrix(1, 0, 0, 1, -4.5, -4.5)" filter="url(#Rectangle_128)">
      <rect id="Rectangle_128-2" data-name="Rectangle 128" width="40" height="40" rx="7" transform="translate(4.5 4.5)" fill="#fff"/>
    </g>
  </g>
  <g id="Group_15" data-name="Group 15" transform="translate(9.375 13.705)">
    <path id="Path_1" data-name="Path 1" d="M153.264,134.97a4.482,4.482,0,1,1-4.482,4.482,4.482,4.482,0,0,1,4.482-4.482" transform="translate(-137.897 -125.236)" fill="#969696" fill-rule="evenodd"/>
    <path id="Path_2" data-name="Path 2" d="M4.482,170.714A4.482,4.482,0,1,1,0,175.2a4.482,4.482,0,0,1,4.482-4.482" transform="translate(0 -158.365)" fill="#009be1" fill-rule="evenodd"/>
    <path id="Path_3" data-name="Path 3" d="M302.046,170.714a4.482,4.482,0,1,1-4.482,4.482,4.482,4.482,0,0,1,4.482-4.482" transform="translate(-275.793 -158.365)" fill="#009be1" fill-rule="evenodd"/>
    <path id="Path_4" data-name="Path 4" d="M26.892,7.685H3.842A3.842,3.842,0,1,1,3.842,0h23.05a3.842,3.842,0,1,1,0,7.685" transform="translate(0 0)" fill="#005078" fill-rule="evenodd"/>
  </g>
</svg>
